<?xml version="1.0" encoding="UTF-8"?>
<!DOCTYPE svg PUBLIC "-//W3C//DTD SVG 1.1//EN" "http://www.w3.org/Graphics/SVG/1.1/DTD/svg11.dtd">
<!-- Creator: CorelDRAW 2020 (64-Bit) -->
<svg xmlns="http://www.w3.org/2000/svg" xml:space="preserve" width="60.28mm" height="26.056mm" version="1.1" style="shape-rendering:geometricPrecision; text-rendering:geometricPrecision; image-rendering:optimizeQuality; fill-rule:evenodd; clip-rule:evenodd"
viewBox="0 0 6028 2605.6"
 xmlns:xlink="http://www.w3.org/1999/xlink"
 xmlns:xodm="http://www.corel.com/coreldraw/odm/2003">
 <defs>
  <style type="text/css">
   <![CDATA[
    .fil0 {fill:white;fill-rule:nonzero}
   ]]>
  </style>
 </defs>
 <g id="Слой_x0020_1">
  <metadata id="CorelCorpID_0Corel-Layer"/>
  <g id="_2947995164864">
   <path class="fil0" d="M2565.95 1302.78c0,190.39 -82.97,371.36 -232.09,534.25 -108.59,-117.27 -251.46,-225.01 -422.28,-320.26 -470,-262.04 -1151.25,-429.26 -1911.56,-436.03l0 -1074.11c1196.02,11.75 2195.3,420.48 2482.75,970.81 54.29,103.93 83.18,212.94 83.18,325.34z"/>
   <path class="fil0" d="M2224 1943.71c-442.49,384.38 -1270.74,645.79 -2223.98,655.21l0 -640.29c684.21,-7.41 1303.87,-144.79 1762.13,-364.28 174.52,101.71 329.88,219.18 461.85,349.36z"/>
   <g>
    <path class="fil0" d="M3748.43 1014.4c0,45.93 -23.71,68.79 -70.91,68.79l-44.66 0 0 -834.6 28.57 0c35.03,0 58.32,6.24 69.75,18.73 11.53,12.39 17.25,40.11 17.25,82.98l0 664.1zm188.7 -913.87c-46.78,-51.44 -116.52,-77.15 -209.23,-77.15l-354.02 0 0 1287.25 345.34 0c106.78,0 181.4,-33.13 224.15,-99.49 42.65,-66.25 64.03,-160.33 64.03,-282.25l0 -602.72c0,-98.96 -23.49,-174.21 -70.27,-225.64z"/>
    <polygon class="fil0" points="4100.96,1310.63 4349.67,1310.63 4349.67,23.38 4100.96,23.38 "/>
    <polygon class="fil0" points="5156.12,1310.63 5404.83,1310.63 5404.83,23.38 5156.12,23.38 "/>
    <polygon class="fil0" points="5464.73,23.38 5464.73,270.6 5617.66,270.6 5617.66,1310.63 5875.04,1310.63 5875.04,270.6 6027.97,270.6 6027.97,23.38 "/>
    <path class="fil0" d="M3621.22 2249.37l42.22 -564.41 10.06 0 48.58 564.41 -100.86 0zm238.33 -753.64l-376.45 0 -107.2 1109.88 215.68 0 13.87 -179.07 133.67 0 15.76 179.07 209.98 0 -105.31 -1109.88z"/>
    <polygon class="fil0" points="4254.95,2416.48 4254.95,1495.73 4033.01,1495.73 4033.01,2605.61 4483.23,2605.61 4483.23,2416.48 "/>
    <polygon class="fil0" points="4772.05,2389.39 4772.05,2135.18 4981.39,2135.18 4981.39,1926.47 4772.05,1926.47 4772.05,1710.15 4990.28,1710.15 4990.28,1495.73 4546.31,1495.73 4546.31,2605.61 5004.78,2605.61 5004.78,2389.39 "/>
    <polygon class="fil0" points="5601.89,1495.73 5509.18,2172.43 5415.94,1495.73 5077.91,1495.73 5077.91,2605.61 5278.46,2605.61 5278.46,1806.04 5413.4,2605.61 5612.68,2605.61 5740,1806.04 5740,2605.61 5943.1,2605.61 5943.1,1495.73 "/>
    <path class="fil0" d="M4815.44 448.97l0 -114.07c0,-27.74 -3.81,-51.02 -11.32,-69.86 -7.52,-18.74 -23.29,-28.16 -47.21,-28.16 -1.37,0 -2.64,0 -3.91,0.12 -0.32,-0.12 -0.74,-0.12 -1.17,-0.12 -8.57,0 -16.29,1.28 -23.17,3.92 -14.29,4.66 -24.45,13.34 -30.59,26.04 -9.52,20 -14.29,42.01 -14.29,65.82l0 624.01c0,34.59 4.55,62.76 13.55,84.44 8.04,19.37 22.97,30.06 44.87,32.07 2.65,0.32 5.3,0.42 8.15,0.42 1.27,0 2.44,0 3.6,-0.1 36.62,-2.33 54.93,-39.9 54.93,-113.24l0 -188.7 -59.27 0 0 -222.35 314.54 0 0 444.17c-6.25,95.46 -33.02,170.08 -80.12,224.06 -12.38,14.17 -25.93,26.67 -40.85,37.47 -50.48,37.14 -115.46,55.77 -195.05,55.77 -7.83,0 -15.56,-0.21 -23.18,-0.54 -91.54,-4.44 -162.45,-35.34 -212.62,-92.7 -33.44,-38.32 -56.62,-87 -69.53,-146.27 -0.1,-0.53 -0.21,-1.06 -0.32,-1.59 -4.87,-24.87 -8.36,-51.65 -10.58,-80.31 -0.74,-13.35 -1.16,-27.21 -1.16,-41.4l0 -611.5c0,-13.76 0.42,-27.2 1.27,-40.1 0,-0.21 0,-0.54 0.1,-0.86 9.85,-107.53 45.4,-185.74 106.79,-234.62 53.92,-42.78 126.47,-59.54 198.73,-60.8l17.98 0c17.17,0.29 34.24,1.41 50.94,3.23 50.38,6.02 93.56,20.2 129.54,42.63 0.11,0 0.21,0.12 0.32,0.22 2.96,2.01 5.82,4.02 8.57,6.14 46.25,34.92 78.21,85.72 95.78,152.51 13.44,51.21 21.8,111.22 24.87,179.8l0 64.45 -250.19 0z"/>
   </g>
  </g>
 </g>
</svg>
